<?xml version="1.0" standalone="no"?>
<!DOCTYPE svg PUBLIC "-//W3C//DTD SVG 20010904//EN"
 "http://www.w3.org/TR/2001/REC-SVG-20010904/DTD/svg10.dtd">
<svg version="1.0" xmlns="http://www.w3.org/2000/svg"
 width="1038.000000pt" height="1038.000000pt" viewBox="0 0 1038.000000 1038.000000"
 preserveAspectRatio="xMidYMid meet">
<metadata>
Created by potrace 1.14, written by Peter Selinger 2001-2017
</metadata>
<g transform="translate(0.000000,1038.000000) scale(0.100000,-0.100000)"
fill="#000000" stroke="none">
<path d="M217 8920 c-7 -3 -13 -9 -14 -15 0 -5 -4 -28 -7 -50 -3 -22 -8 -51
-11 -65 -2 -14 -7 -43 -10 -65 -3 -22 -10 -65 -15 -95 -11 -66 -13 -79 -39
-240 -12 -69 -23 -134 -25 -146 -2 -12 -7 -45 -11 -75 -4 -30 -8 -56 -10 -59
-2 -3 -6 -28 -9 -55 -4 -27 -8 -57 -11 -65 -2 -8 -7 -35 -10 -60 -3 -25 -11
-78 -18 -117 -12 -65 -12 -73 2 -74 9 0 451 -1 983 -1 l968 -1 -6 -31 c-3 -17
-11 -71 -19 -121 -8 -49 -27 -175 -44 -280 -16 -104 -33 -210 -36 -235 -4 -24
-8 -47 -10 -50 -3 -4 -10 -54 -20 -130 -2 -14 -13 -84 -21 -125 -2 -10 -6 -37
-9 -60 -4 -22 -8 -52 -11 -67 -8 -55 -13 -86 -39 -243 -14 -88 -28 -176 -31
-195 -2 -19 -7 -51 -10 -70 -3 -19 -8 -46 -10 -60 -2 -14 -7 -41 -10 -60 -4
-19 -8 -46 -10 -60 -2 -14 -6 -41 -9 -60 -4 -19 -9 -48 -11 -65 -4 -35 -15
-102 -20 -130 -3 -11 -7 -38 -10 -60 -3 -22 -12 -80 -20 -130 -15 -91 -19
-112 -29 -175 -3 -19 -7 -46 -10 -60 -4 -22 -10 -61 -20 -135 -10 -68 -56
-353 -60 -365 -2 -8 -6 -37 -10 -65 -3 -27 -12 -88 -20 -135 -8 -47 -17 -103
-20 -125 -10 -66 -15 -97 -25 -155 -5 -30 -12 -73 -15 -95 -3 -22 -8 -51 -11
-65 -2 -14 -7 -38 -9 -55 -7 -45 -15 -88 -19 -110 -2 -11 -7 -47 -11 -80 -3
-32 -8 -62 -10 -65 -2 -3 -6 -30 -10 -60 -3 -30 -8 -62 -10 -70 -4 -12 -47
-285 -60 -370 -2 -14 -13 -83 -25 -155 -11 -71 -23 -143 -26 -160 -2 -16 -6
-41 -9 -55 -3 -14 -7 -41 -9 -60 -2 -19 -20 -133 -40 -252 -35 -210 -55 -336
-61 -388 -2 -14 -6 -38 -9 -55 -7 -37 -14 -77 -21 -130 -3 -22 -10 -62 -15
-90 -5 -27 -11 -66 -14 -85 -3 -19 -17 -109 -32 -200 -14 -91 -28 -182 -31
-202 l-5 -38 644 0 644 0 27 173 c15 95 29 183 32 197 2 14 13 84 24 155 12
72 23 139 25 151 2 12 7 45 11 75 4 30 8 57 10 60 2 3 6 27 9 55 4 27 8 60 11
74 6 37 17 102 19 125 2 11 6 36 9 55 5 29 41 252 63 400 3 19 17 103 31 185
13 83 26 164 28 180 4 33 7 52 35 225 10 63 21 135 25 160 3 25 8 52 10 60 2
8 7 35 10 60 3 25 12 83 20 130 8 47 16 103 20 125 3 22 10 65 15 95 5 30 12
73 15 95 3 22 13 85 22 140 9 55 17 111 19 125 2 14 5 36 8 50 4 22 41 253 51
320 6 40 17 114 20 130 1 8 6 35 10 60 4 25 9 52 10 60 2 8 6 35 9 60 3 25 18
115 31 200 14 85 27 169 29 185 2 17 9 57 14 90 6 33 13 76 16 95 3 19 13 80
22 135 9 55 18 114 19 130 2 17 13 84 24 150 11 66 36 224 56 350 19 127 49
316 66 420 17 105 33 204 35 220 3 17 9 55 14 85 5 30 12 78 15 105 4 28 8 57
10 65 5 17 8 37 25 155 7 44 13 85 14 90 1 6 5 15 8 21 5 8 284 11 955 12 521
0 960 1 975 1 24 1 27 5 33 54 4 28 9 59 10 67 2 8 12 74 24 145 12 72 23 140
25 151 2 12 7 39 10 60 3 22 8 50 11 64 2 14 7 41 9 60 3 19 8 46 10 60 6 35
34 207 42 255 3 22 14 89 24 150 11 60 16 112 14 115 -7 6 -5171 7 -5187 0z"/>
<path d="M5927 8918 c-7 -4 -9 -8 -6 -8 4 0 3 -19 -2 -42 -4 -24 -15 -90 -23
-148 -9 -58 -18 -118 -21 -135 -8 -46 -17 -98 -21 -120 -2 -11 -6 -36 -8 -55
-3 -19 -8 -53 -11 -75 -15 -92 -56 -352 -60 -375 -18 -109 -57 -351 -60 -375
-5 -40 -15 -104 -21 -135 -6 -34 -12 -67 -18 -115 -4 -22 -8 -51 -11 -65 -3
-14 -7 -41 -9 -60 -4 -28 -31 -195 -51 -320 -10 -60 -21 -129 -31 -200 -2 -19
-9 -60 -14 -90 -16 -92 -49 -298 -55 -340 -2 -14 -8 -54 -14 -90 -6 -36 -13
-83 -16 -105 -3 -22 -10 -62 -15 -90 -6 -27 -12 -66 -14 -85 -4 -30 -15 -100
-31 -200 -2 -14 -9 -54 -14 -90 -6 -36 -13 -74 -15 -85 -2 -11 -7 -42 -10 -68
-4 -27 -9 -58 -12 -70 -2 -12 -6 -39 -9 -62 -8 -54 -34 -215 -39 -240 -2 -11
-7 -42 -10 -69 -4 -27 -13 -85 -21 -130 -7 -44 -16 -101 -20 -126 -3 -25 -10
-67 -15 -95 -5 -27 -12 -66 -14 -85 -2 -19 -9 -62 -15 -95 -5 -33 -13 -78 -16
-100 -6 -43 -12 -82 -20 -130 -3 -16 -8 -46 -11 -65 -8 -54 -13 -83 -18 -110
-3 -14 -8 -45 -11 -70 -3 -25 -7 -56 -10 -70 -2 -13 -7 -42 -10 -65 -3 -22
-12 -78 -20 -125 -14 -84 -22 -136 -31 -195 -3 -16 -9 -55 -14 -85 -5 -30 -12
-75 -15 -100 -3 -25 -8 -52 -10 -60 -2 -8 -7 -35 -10 -60 -4 -25 -19 -124 -35
-220 -28 -173 -35 -218 -45 -294 -2 -21 -7 -46 -9 -55 -4 -15 -12 -58 -21
-121 -2 -14 -8 -54 -14 -90 -6 -36 -13 -83 -16 -105 -4 -22 -8 -51 -11 -65 -7
-43 -35 -213 -40 -250 -3 -19 -16 -102 -29 -185 -13 -82 -29 -181 -35 -220
-18 -116 -20 -129 -26 -158 l-6 -28 1269 4 c697 2 1279 6 1293 9 14 4 56 9 94
13 38 3 72 8 75 9 3 2 33 7 66 11 32 3 62 8 65 10 3 2 22 6 43 9 22 3 92 20
157 36 601 152 1117 489 1495 976 22 29 47 62 55 74 8 12 27 39 41 59 84 119
210 357 272 517 38 96 112 329 120 379 3 17 13 64 22 105 16 74 21 105 30 165
2 17 17 116 34 220 17 105 33 208 36 230 4 22 8 51 11 65 2 14 6 45 10 70 3
25 7 52 9 60 5 17 8 39 25 155 7 44 14 89 16 100 2 11 7 38 9 60 3 22 10 63
15 90 5 28 12 70 15 95 3 25 10 68 15 95 5 28 12 68 15 90 2 22 7 51 10 65 4
23 11 65 21 140 3 19 11 71 19 115 7 44 16 102 20 128 4 27 8 57 10 67 2 9 6
35 9 56 4 22 11 66 16 99 5 33 12 78 15 100 3 22 8 51 10 65 3 14 7 39 9 55 3
17 12 73 20 125 8 52 20 129 27 170 6 41 13 82 14 90 7 40 16 98 21 130 2 19
6 46 8 60 3 14 7 46 10 73 3 26 9 68 12 95 10 75 12 390 3 467 -5 39 -11 88
-14 110 -51 426 -280 837 -615 1104 -323 258 -710 398 -1240 447 -102 10
-2488 11 -2503 2z m2238 -1182 c185 -31 258 -52 370 -108 250 -125 410 -341
459 -620 13 -78 16 -321 3 -373 -3 -11 -8 -42 -11 -70 -4 -27 -16 -104 -27
-170 -11 -66 -22 -133 -25 -150 -2 -16 -9 -55 -14 -85 -5 -30 -12 -71 -14 -90
-6 -43 -13 -88 -32 -205 -8 -49 -17 -101 -19 -115 -14 -85 -47 -289 -51 -310
-2 -14 -13 -84 -24 -155 -11 -72 -22 -139 -24 -150 -7 -39 -17 -100 -21 -134
-2 -18 -7 -41 -10 -50 -3 -9 -7 -35 -9 -56 -2 -22 -16 -112 -31 -200 -35 -215
-34 -211 -40 -247 -3 -18 -7 -44 -10 -58 -2 -14 -7 -45 -10 -70 -3 -25 -8 -52
-10 -60 -4 -14 -8 -40 -20 -127 -3 -21 -10 -60 -15 -88 -5 -27 -12 -68 -15
-90 -3 -23 -8 -52 -10 -65 -3 -14 -8 -45 -11 -70 -11 -82 -42 -217 -69 -296
-29 -87 -112 -267 -126 -272 -5 -2 -9 -8 -9 -13 0 -28 -165 -222 -256 -299
-150 -129 -390 -243 -589 -279 -33 -6 -69 -13 -81 -15 -70 -14 -229 -18 -667
-18 -270 0 -504 1 -518 1 l-26 1 13 68 c7 37 15 90 19 117 4 28 8 59 10 70 2
11 13 81 25 155 12 74 23 146 25 160 2 14 9 54 15 90 6 36 13 81 16 100 2 19
11 73 19 120 8 47 17 105 20 130 9 63 15 102 20 120 2 8 6 35 9 60 3 25 8 54
10 65 2 11 9 56 16 100 13 88 64 415 80 510 6 33 12 74 15 90 2 17 16 104 30
195 14 91 28 181 31 200 3 19 9 58 14 85 6 28 12 70 15 95 3 25 7 56 10 70 6
31 12 65 19 110 3 19 12 78 20 130 8 52 17 111 20 130 3 19 14 89 25 155 11
66 23 143 26 170 4 28 8 57 10 65 2 8 6 29 9 45 10 68 19 121 21 136 2 9 6 40
10 70 4 30 8 57 10 60 2 3 6 27 9 55 4 27 8 60 11 74 3 14 7 39 9 55 33 205
56 347 61 380 7 49 73 467 81 515 3 19 7 53 10 74 3 22 7 43 9 46 2 3 7 33 10
65 4 33 9 69 11 80 2 11 7 36 10 55 4 19 8 38 11 42 5 9 1094 3 1148 -6z"/>
</g>
</svg>
